<?xml version="1.0" encoding="UTF-8" standalone="no"?>
<svg xmlns:xlink="http://www.w3.org/1999/xlink" height="14.0px" width="14.0px" xmlns="http://www.w3.org/2000/svg">
  <g transform="matrix(1.0, 0.0, 0.0, 1.0, 0.0, 0.0)">
    <path d="M14.0 0.0 L14.0 14.0 0.0 14.0 0.0 0.0 14.0 0.0" fill="#ffffff" fill-opacity="0.0" fill-rule="evenodd" stroke="none"/>
    <path d="M12.1 2.35 Q12.7 3.1 13.05 4.45 L12.9 6.4 Q11.8 10.1 7.05 12.7 2.3 10.1 1.2 6.4 L1.7 7.45 Q4.2 10.5 7.05 10.25 13.95 9.05 12.1 2.35" fill="#b20000" fill-rule="evenodd" stroke="none"/>
    <path d="M1.2 6.4 Q0.85 5.45 1.0 4.45 1.9 1.1 4.2 1.3 6.45 1.45 7.05 2.95 7.65 1.45 9.9 1.3 11.25 1.2 12.1 2.35 13.95 9.05 7.05 10.25 4.2 10.5 1.7 7.45 L1.2 6.4 M9.05 3.25 L9.45 2.65 11.4 2.45 Q10.5 1.4 9.25 1.75 7.85 2.1 8.0 3.1 8.4 3.95 9.05 3.25 M2.45 3.95 L3.2 3.9 Q4.4 2.75 6.5 3.3 6.25 1.95 4.2 1.8 2.9 2.0 2.5 2.55 1.75 3.45 2.45 3.95" fill="#fe0000" fill-rule="evenodd" stroke="none"/>
    <path d="M9.05 3.25 Q8.4 3.95 8.0 3.1 7.85 2.1 9.25 1.75 10.5 1.4 11.4 2.45 L9.45 2.65 9.05 3.25 M2.45 3.95 Q1.75 3.45 2.5 2.55 2.9 2.0 4.2 1.8 6.25 1.95 6.5 3.3 4.4 2.75 3.2 3.9 L2.45 3.95" fill="#ff4e4e" fill-rule="evenodd" stroke="none"/>
    <path d="M12.1 2.35 Q12.7 3.1 13.05 4.45 L12.9 6.4 Q11.8 10.1 7.05 12.7 2.3 10.1 1.2 6.4 0.85 5.45 1.0 4.45 1.9 1.1 4.2 1.3 6.45 1.45 7.05 2.95 7.65 1.45 9.9 1.3 11.25 1.2 12.1 2.35 Z" fill="none" stroke="#000000" stroke-linecap="round" stroke-linejoin="round" stroke-opacity="0.3019608" stroke-width="0.2"/>
  </g>
</svg>
