<?xml version="1.0" encoding="UTF-8" standalone="no"?>
<svg xmlns:xlink="http://www.w3.org/1999/xlink" height="14.0px" width="14.0px" xmlns="http://www.w3.org/2000/svg">
  <g transform="matrix(1.0, 0.0, 0.0, 1.0, 0.0, 0.0)">
    <path d="M14.0 0.0 L14.0 14.0 0.0 14.0 0.0 0.0 14.0 0.0" fill="#ffffff" fill-opacity="0.0" fill-rule="evenodd" stroke="none"/>
    <path d="M2.05 1.95 L11.9 1.95 Q11.85 9.2 7.0 11.95 L6.95 11.95 Q2.1 9.2 2.05 1.95 M7.0 10.6 Q10.55 8.6 10.55 3.3 L3.4 3.3 Q3.45 8.6 6.95 10.6 L7.0 10.6" fill="#7e66bd" fill-rule="evenodd" stroke="none"/>
    <path d="M7.0 10.6 L6.95 10.6 Q3.45 8.6 3.4 3.3 L10.55 3.3 Q10.55 8.6 7.0 10.6" fill="#43357d" fill-rule="evenodd" stroke="none"/>
    <path d="M2.05 1.95 L11.9 1.95 Q11.85 9.2 7.0 11.95 L6.95 11.95 Q2.1 9.2 2.05 1.95 Z" fill="none" stroke="#000000" stroke-linecap="round" stroke-linejoin="round" stroke-opacity="0.5019608" stroke-width="0.05"/>
  </g>
</svg>
