<?xml version="1.0" encoding="utf-8"?>
<!-- Generator: Adobe Illustrator 26.5.0, SVG Export Plug-In . SVG Version: 6.00 Build 0)  -->
<svg version="1.1" id="Layer_1" xmlns="http://www.w3.org/2000/svg" xmlns:xlink="http://www.w3.org/1999/xlink" x="0px" y="0px"
	 viewBox="0 0 130.24 23.58" style="enable-background:new 0 0 130.24 23.58;" xml:space="preserve">
<g>
	<path class="st0" d="M7.42,18.39c0,0.18-0.15,0.31-0.33,0.31H1.52c-0.15,0-0.31-0.13-0.31-0.31c0-0.18,0.15-0.31,0.31-0.31h1.1
		V3.91H1.69c-0.18,0-0.33-0.13-0.33-0.31c0-0.18,0.15-0.31,0.33-0.31h5.28c0.18,0,0.33,0.13,0.33,0.31c0,0.18-0.15,0.31-0.33,0.31
		H6.05v14.17h1.03C7.26,18.08,7.42,18.22,7.42,18.39z M3.28,18.08h2.11V3.91H3.28V18.08z M15.91,18.39c0,0.18-0.15,0.31-0.33,0.31
		H9.9c-0.18,0-0.31-0.13-0.31-0.31c0-0.18,0.13-0.31,0.31-0.31h1.08L6.4,10.87c-0.04-0.07-0.07-0.13-0.07-0.2s0.02-0.13,0.07-0.18
		l5.13-6.58h-1.41c-0.18,0-0.31-0.13-0.31-0.31c0-0.18,0.13-0.31,0.31-0.31h3.83c0.18,0,0.31,0.13,0.31,0.31
		c0,0.18-0.13,0.31-0.31,0.31h-1.61l-3.5,4.51l6.12,9.66h0.62C15.75,18.08,15.91,18.22,15.91,18.39z M11.77,18.08h2.44L8.43,8.95
		l-1.34,1.76L11.77,18.08z"/>
	<path class="st0" d="M31.7,18.39c0,0.18-0.13,0.31-0.29,0.31h-5.65c-0.15,0-0.29-0.13-0.29-0.31c0-0.15,0.13-0.31,0.29-0.31H27
		l-1.17-3.74h-6.38l-1.21,3.74h1.47c0.15,0,0.29,0.15,0.29,0.31c0,0.18-0.13,0.31-0.29,0.31h-3.39c-0.15,0-0.29-0.13-0.29-0.31
		c0-0.15,0.13-0.31,0.29-0.31h1.23l4.58-14.17h-1.28c-0.15,0-0.29-0.13-0.29-0.31c0-0.18,0.13-0.31,0.29-0.31h4.82
		c0.18,0,0.31,0.09,0.37,0.29l4.47,14.5h0.9C31.57,18.08,31.7,18.24,31.7,18.39z M25.65,13.73l-2.93-9.48l-3.08,9.48H25.65z
		 M27.68,18.08h2.16L25.48,3.91h-2.16L27.68,18.08z"/>
	<path class="st0" d="M46.05,18.39c0,0.2-0.15,0.31-0.33,0.31h-4.18c-0.2,0-0.33-0.13-0.33-0.33v-6.62h-3.48v6.34h0.68
		c0.2,0,0.31,0.13,0.31,0.31c0,0.18-0.11,0.31-0.31,0.31h-5.28c-0.18,0-0.31-0.13-0.31-0.31c0-0.18,0.13-0.31,0.31-0.31h1.17V3.89
		h-1.03c-0.2,0-0.31-0.13-0.31-0.33c0-0.18,0.11-0.26,0.31-0.26h7.22c2.53,0,4.33,1.5,4.33,4.22c0,1.67-0.92,3.08-2.27,3.78
		c1.25,0.44,2.18,1.63,2.18,3.04v3.74h0.99C45.89,18.08,46.05,18.22,46.05,18.39z M37.07,18.08V3.89h-2.11v14.19H37.07z
		 M41.21,11.09V3.94c-0.24-0.02-0.48-0.04-0.73-0.04h-2.75v7.24h2.95C40.85,11.13,41.03,11.11,41.21,11.09z M41.87,4.09v6.82
		c1.34-0.51,2.29-1.83,2.29-3.39C44.16,5.7,43.28,4.53,41.87,4.09z M41.87,18.08h2.2v-3.74c0-1.28-0.97-2.4-2.2-2.57V18.08z"/>
	<path class="st0" d="M61.14,18.39c0,0.2-0.15,0.31-0.33,0.31h-4.18c-0.2,0-0.33-0.13-0.33-0.33v-6.62h-3.48v6.34h0.68
		c0.2,0,0.31,0.13,0.31,0.31c0,0.18-0.11,0.31-0.31,0.31h-5.28c-0.18,0-0.31-0.13-0.31-0.31c0-0.18,0.13-0.31,0.31-0.31h1.17V3.89
		h-1.03c-0.2,0-0.31-0.13-0.31-0.33c0-0.18,0.11-0.26,0.31-0.26h7.22c2.53,0,4.33,1.5,4.33,4.22c0,1.67-0.92,3.08-2.27,3.78
		c1.25,0.44,2.18,1.63,2.18,3.04v3.74h0.99C60.99,18.08,61.14,18.22,61.14,18.39z M52.16,18.08V3.89h-2.11v14.19H52.16z M56.3,11.09
		V3.94c-0.24-0.02-0.48-0.04-0.73-0.04h-2.75v7.24h2.95C55.95,11.13,56.12,11.11,56.3,11.09z M56.96,4.09v6.82
		c1.34-0.51,2.29-1.83,2.29-3.39C59.25,5.7,58.37,4.53,56.96,4.09z M56.96,18.08h2.2v-3.74c0-1.28-0.97-2.4-2.2-2.57V18.08z"/>
	<path class="st0" d="M73.61,15.55v2.84c0,0.18-0.15,0.31-0.33,0.31h-9.97c-0.2,0-0.31-0.15-0.31-0.31c0-0.18,0.11-0.31,0.31-0.31
		h1.03V3.91h-0.92c-0.2,0-0.31-0.13-0.31-0.31c0-0.15,0.11-0.31,0.31-0.31h9.7c0.2,0,0.33,0.13,0.33,0.31v2.51
		c0,0.2-0.18,0.31-0.33,0.31c-0.15,0-0.33-0.11-0.33-0.31v-2.2h-5.02v6.47h4.38V9.17c0-0.2,0.15-0.31,0.33-0.31
		c0.15,0,0.33,0.11,0.33,0.31v2.95c0,0.2-0.15,0.31-0.31,0.31c-0.2,0-0.35-0.11-0.35-0.31V11h-4.38v7.08h5.17v-2.53
		c0-0.22,0.18-0.33,0.33-0.33C73.44,15.22,73.61,15.33,73.61,15.55z M65.01,18.08h2.11V3.91h-2.11V18.08z"/>
	<path class="st0" d="M86.17,15.49v2.9c0,0.2-0.13,0.31-0.31,0.31h-9.86c-0.18,0-0.31-0.11-0.31-0.31c0-0.15,0.13-0.31,0.31-0.31
		h0.92V3.91h-0.79c-0.15,0-0.29-0.13-0.29-0.31c0-0.18,0.13-0.31,0.29-0.31h5.32c0.15,0,0.31,0.13,0.31,0.31
		c0,0.18-0.15,0.31-0.31,0.31h-1.1v14.17h5.15v-2.6c0-0.15,0.15-0.29,0.33-0.29C86.02,15.2,86.17,15.33,86.17,15.49z M77.59,18.08
		h2.11V3.91h-2.11V18.08z"/>
	<path class="st0" d="M101.99,18.39c0,0.18-0.13,0.31-0.29,0.31h-5.65c-0.15,0-0.29-0.13-0.29-0.31c0-0.15,0.13-0.31,0.29-0.31h1.23
		l-1.17-3.74h-6.38l-1.21,3.74H90c0.15,0,0.29,0.15,0.29,0.31c0,0.18-0.13,0.31-0.29,0.31h-3.39c-0.15,0-0.29-0.13-0.29-0.31
		c0-0.15,0.13-0.31,0.29-0.31h1.23l4.58-14.17h-1.28c-0.15,0-0.29-0.13-0.29-0.31c0-0.18,0.13-0.31,0.29-0.31h4.82
		c0.18,0,0.31,0.09,0.37,0.29l4.47,14.5h0.9C101.86,18.08,101.99,18.24,101.99,18.39z M95.94,13.73l-2.93-9.48l-3.08,9.48H95.94z
		 M97.97,18.08h2.16L95.77,3.91h-2.16L97.97,18.08z"/>
	<path class="st0" d="M117.28,12.16c0,0.15-0.11,0.31-0.33,0.31h-0.64v3.3c0,0.15-0.04,0.26-0.13,0.4
		c-1.47,1.94-3.78,2.88-6.31,2.88c-4.77,0-7.96-3.23-7.96-8.05s3.19-8.05,7.94-8.05h0.02c1.54,0,3.65,0.42,4.71,1.67V3.28
		c0-0.2,0.18-0.31,0.33-0.31c0.15,0,0.33,0.11,0.33,0.31v3.61c0,0.22-0.18,0.33-0.33,0.33c-0.15,0-0.33-0.11-0.33-0.33V6.47
		c0-2.38-2.97-2.9-4.71-2.9h-0.02c-1.5,0-2.84,0.35-3.94,0.99v12.89c1.1,0.64,2.44,0.99,3.96,0.99c1.08,0,2.09-0.18,3.01-0.55v-5.41
		h-1.12c-0.2,0-0.31-0.15-0.31-0.31c0-0.15,0.11-0.31,0.31-0.31h5.19C117.17,11.86,117.28,12.01,117.28,12.16z M105.25,17.01V4.97
		c-1.72,1.3-2.73,3.41-2.73,6.03C102.52,13.62,103.53,15.73,105.25,17.01z M115.66,12.47h-2.11v5.13c0.81-0.44,1.52-1.01,2.11-1.76
		V12.47z"/>
	<path class="st0" d="M129.36,15.55v2.84c0,0.18-0.15,0.31-0.33,0.31h-9.97c-0.2,0-0.31-0.15-0.31-0.31c0-0.18,0.11-0.31,0.31-0.31
		h1.03V3.91h-0.92c-0.2,0-0.31-0.13-0.31-0.31c0-0.15,0.11-0.31,0.31-0.31h9.7c0.2,0,0.33,0.13,0.33,0.31v2.51
		c0,0.2-0.18,0.31-0.33,0.31c-0.15,0-0.33-0.11-0.33-0.31v-2.2h-5.02v6.47h4.38V9.17c0-0.2,0.15-0.31,0.33-0.31
		c0.15,0,0.33,0.11,0.33,0.31v2.95c0,0.2-0.15,0.31-0.31,0.31c-0.2,0-0.35-0.11-0.35-0.31V11h-4.38v7.08h5.17v-2.53
		c0-0.22,0.18-0.33,0.33-0.33C129.18,15.22,129.36,15.33,129.36,15.55z M120.76,18.08h2.11V3.91h-2.11V18.08z"/>
</g>
<rect x="307.42" y="97.65" style="fill:none;" width="3.95" height="0"/>
</svg>
