<?xml version="1.0" encoding="utf-8"?>
<!-- Generator: Adobe Illustrator 26.5.0, SVG Export Plug-In . SVG Version: 6.00 Build 0)  -->
<svg version="1.1" id="Layer_1" xmlns="http://www.w3.org/2000/svg" xmlns:xlink="http://www.w3.org/1999/xlink" x="0px" y="0px"
	 viewBox="0 0 130.2 23.6" style="enable-background:new 0 0 130.2 23.6;" xml:space="preserve">
<style type="text/css">
	.st0{fill:none;}
	.st1{fill:#FFFFFF;}
</style>
<polygon class="st0" points="307.4,97.7 311.4,97.7 311.4,97.7 "/>
<g>
	<path class="st1" d="M7.4,19.3c0,0.2-0.2,0.3-0.3,0.3H1.5c-0.2,0-0.3-0.1-0.3-0.3S1.4,19,1.5,19h1.1V4.8H1.7
		c-0.2,0-0.3-0.1-0.3-0.3c0-0.2,0.2-0.3,0.3-0.3H7c0.2,0,0.3,0.1,0.3,0.3c0,0.2-0.2,0.3-0.3,0.3H6.1V19h1C7.3,19,7.4,19.1,7.4,19.3z
		 M15.9,19.3c0,0.2-0.2,0.3-0.3,0.3H9.9c-0.2,0-0.3-0.1-0.3-0.3S9.7,19,9.9,19H11l-4.6-7.2c0-0.1-0.1-0.1-0.1-0.2s0-0.1,0.1-0.2
		l5.1-6.6h-1.4c-0.2,0-0.3-0.1-0.3-0.3c0-0.2,0.1-0.3,0.3-0.3H14c0.2,0,0.3,0.1,0.3,0.3c0,0.2-0.1,0.3-0.3,0.3h-1.6L8.8,9.3L15,19
		h0.6C15.8,19,15.9,19.1,15.9,19.3z"/>
	<path class="st1" d="M31.7,19.3c0,0.2-0.1,0.3-0.3,0.3h-5.7c-0.2,0-0.3-0.1-0.3-0.3c0-0.2,0.1-0.3,0.3-0.3H27l-1.2-3.7h-6.4
		L18.2,19h1.5c0.2,0,0.3,0.2,0.3,0.3c0,0.2-0.1,0.3-0.3,0.3h-3.4c-0.2,0-0.3-0.1-0.3-0.3c0-0.2,0.1-0.3,0.3-0.3h1.2l4.6-14.2h-1.3
		c-0.2,0-0.3-0.1-0.3-0.3c0-0.2,0.1-0.3,0.3-0.3h4.8c0.2,0,0.3,0.1,0.4,0.3L30.5,19h0.9C31.6,19,31.7,19.1,31.7,19.3z M25.7,14.6
		l-2.9-9.5l-3.1,9.5H25.7z"/>
	<path class="st1" d="M46,19.3c0,0.2-0.2,0.3-0.3,0.3h-4.2c-0.2,0-0.3-0.1-0.3-0.3v-6.6h-3.5V19h0.7c0.2,0,0.3,0.1,0.3,0.3
		s-0.1,0.3-0.3,0.3h-5.3c-0.2,0-0.3-0.1-0.3-0.3S33,19,33.1,19h1.2V4.8h-1c-0.2,0-0.3-0.1-0.3-0.3c0-0.2,0.1-0.3,0.3-0.3h7.2
		c2.5,0,4.3,1.5,4.3,4.2c0,1.7-0.9,3.1-2.3,3.8c1.3,0.4,2.2,1.6,2.2,3V19h1C45.9,19,46,19.1,46,19.3z M41.2,12V4.8
		c-0.2,0-0.5,0-0.7,0h-2.8V12h2.9C40.9,12,41,12,41.2,12z"/>
	<path class="st1" d="M61.1,19.3c0,0.2-0.2,0.3-0.3,0.3h-4.2c-0.2,0-0.3-0.1-0.3-0.3v-6.6h-3.5V19h0.7c0.2,0,0.3,0.1,0.3,0.3
		s-0.1,0.3-0.3,0.3h-5.3c-0.2,0-0.3-0.1-0.3-0.3S48,19,48.2,19h1.2V4.8h-1c-0.2,0-0.3-0.1-0.3-0.3c0-0.2,0.1-0.3,0.3-0.3h7.2
		c2.5,0,4.3,1.5,4.3,4.2c0,1.7-0.9,3.1-2.3,3.8c1.3,0.4,2.2,1.6,2.2,3V19h1C61,19,61.1,19.1,61.1,19.3z M56.3,12V4.8
		c-0.2,0-0.5,0-0.7,0h-2.8V12h2.9C55.9,12,56.1,12,56.3,12z"/>
	<path class="st1" d="M73.6,16.4v2.8c0,0.2-0.2,0.3-0.3,0.3h-10c-0.2,0-0.3-0.2-0.3-0.3c0-0.2,0.1-0.3,0.3-0.3h1V4.8h-0.9
		c-0.2,0-0.3-0.1-0.3-0.3c0-0.2,0.1-0.3,0.3-0.3h9.7c0.2,0,0.3,0.1,0.3,0.3V7c0,0.2-0.2,0.3-0.3,0.3c-0.2,0-0.3-0.1-0.3-0.3V4.8h-5
		v6.5h4.4v-1.2c0-0.2,0.2-0.3,0.3-0.3c0.2,0,0.3,0.1,0.3,0.3V13c0,0.2-0.2,0.3-0.3,0.3c-0.2,0-0.4-0.1-0.4-0.3v-1.1h-4.4V19H73v-2.5
		c0-0.2,0.2-0.3,0.3-0.3C73.4,16.1,73.6,16.2,73.6,16.4z"/>
	<path class="st1" d="M86.2,16.4v2.9c0,0.2-0.1,0.3-0.3,0.3H76c-0.2,0-0.3-0.1-0.3-0.3c0-0.2,0.1-0.3,0.3-0.3h0.9V4.8h-0.8
		c-0.2,0-0.3-0.1-0.3-0.3c0-0.2,0.1-0.3,0.3-0.3h5.3c0.2,0,0.3,0.1,0.3,0.3c0,0.2-0.2,0.3-0.3,0.3h-1.1V19h5.1v-2.6
		c0-0.2,0.2-0.3,0.3-0.3S86.2,16.2,86.2,16.4z"/>
	<path class="st1" d="M102,19.3c0,0.2-0.1,0.3-0.3,0.3h-5.7c-0.2,0-0.3-0.1-0.3-0.3c0-0.2,0.1-0.3,0.3-0.3h1.2l-1.2-3.7h-6.4
		L88.5,19H90c0.2,0,0.3,0.2,0.3,0.3c0,0.2-0.1,0.3-0.3,0.3h-3.4c-0.2,0-0.3-0.1-0.3-0.3c0-0.2,0.1-0.3,0.3-0.3h1.2l4.6-14.2h-1.3
		c-0.2,0-0.3-0.1-0.3-0.3c0-0.2,0.1-0.3,0.3-0.3H96c0.2,0,0.3,0.1,0.4,0.3l4.5,14.5h0.9C101.9,19,102,19.1,102,19.3z M95.9,14.6
		L93,5.1l-3.1,9.5H95.9z"/>
	<path class="st1" d="M117.3,13c0,0.2-0.1,0.3-0.3,0.3h-0.6v3.3c0,0.2,0,0.3-0.1,0.4c-1.5,1.9-3.8,2.9-6.3,2.9c-4.8,0-8-3.2-8-8.1
		s3.2-8.1,7.9-8.1h0c1.5,0,3.7,0.4,4.7,1.7V4.2c0-0.2,0.2-0.3,0.3-0.3s0.3,0.1,0.3,0.3v3.6c0,0.2-0.2,0.3-0.3,0.3s-0.3-0.1-0.3-0.3
		V7.3c0-2.4-3-2.9-4.7-2.9h0c-1.5,0-2.8,0.4-3.9,1v12.9c1.1,0.6,2.4,1,4,1c1.1,0,2.1-0.2,3-0.5v-5.4h-1.1c-0.2,0-0.3-0.2-0.3-0.3
		c0-0.2,0.1-0.3,0.3-0.3h5.2C117.2,12.7,117.3,12.9,117.3,13z"/>
	<path class="st1" d="M129.4,16.4v2.8c0,0.2-0.2,0.3-0.3,0.3h-10c-0.2,0-0.3-0.2-0.3-0.3c0-0.2,0.1-0.3,0.3-0.3h1V4.8h-0.9
		c-0.2,0-0.3-0.1-0.3-0.3c0-0.2,0.1-0.3,0.3-0.3h9.7c0.2,0,0.3,0.1,0.3,0.3V7c0,0.2-0.2,0.3-0.3,0.3c-0.2,0-0.3-0.1-0.3-0.3V4.8h-5
		v6.5h4.4v-1.2c0-0.2,0.2-0.3,0.3-0.3c0.2,0,0.3,0.1,0.3,0.3V13c0,0.2-0.2,0.3-0.3,0.3c-0.2,0-0.4-0.1-0.4-0.3v-1.1h-4.4V19h5.2
		v-2.5c0-0.2,0.2-0.3,0.3-0.3C129.2,16.1,129.4,16.2,129.4,16.4z"/>
</g>
</svg>
