<?xml version="1.0" encoding="utf-8"?>
<!-- Generator: Adobe Illustrator 26.5.0, SVG Export Plug-In . SVG Version: 6.00 Build 0)  -->
<svg version="1.1" id="Layer_1" xmlns="http://www.w3.org/2000/svg" xmlns:xlink="http://www.w3.org/1999/xlink" x="0px" y="0px"
	 viewBox="0 0 87.1 128.6" style="enable-background:new 0 0 87.1 128.6;" xml:space="preserve">
<g class="st0">
	<path class="st1" d="M40.4,100.3c0,1-0.8,1.7-1.8,1.7H8.3c-0.8,0-1.7-0.7-1.7-1.7s0.8-1.7,1.7-1.7h6V21.4h-5c-1,0-1.8-0.7-1.8-1.7
		S8.3,18,9.2,18L38,18c1,0,1.8,0.7,1.8,1.7S39,21.4,38,21.4h-5v77.3h5.6C39.6,98.6,40.4,99.4,40.4,100.3z M17.9,98.6h11.5V21.4H17.9
		V98.6z M86.8,100.3c0,1-0.8,1.7-1.8,1.7H54c-1,0-1.7-0.7-1.7-1.7s0.7-1.7,1.7-1.7h5.9l-25-39.4c-0.2-0.4-0.4-0.7-0.4-1.1
		c0-0.4,0.1-0.7,0.4-1l28-35.9h-7.7c-1,0-1.7-0.7-1.7-1.7s0.7-1.7,1.7-1.7l20.9,0c1,0,1.7,0.7,1.7,1.7s-0.7,1.7-1.7,1.7h-8.8
		L48.2,46l33.4,52.7H85C85.9,98.6,86.8,99.4,86.8,100.3z M64.2,98.6h13.3L46,48.8l-7.3,9.6L64.2,98.6z"/>
</g>
</svg>
